<svg viewBox="0 0 200 50" xmlns="http://www.w3.org/2000/svg">
            <path d="M36 1c-1.5 0-3.1.2-4.8.6 0 0-9 2.2-19 11.5 0 0-4.7 4.8-8.1 11 0 0-3.5 6.5-4 11.8 0 0-.5 6.1 2.9 9.2 0 0 3.9 3.6 12.6 2.9 0 0 5.4-.7 11.3-4.3 0 0 2.8-1.8 4.7-3.6 0 0-.9 3.1.4 5.3 0 0 1.2 2.1 3.9 2.6 0 0 2 .4 4.8-.7 0 0 1.8-.8 3-1.4 0 0 2.4-1.3 4.8-3.2 0 0-.5 1.8.6 3.4 0 0 1.3 1.8 3.6 2 0 0 6.2.5 14.8-10.1l-6.1 9.7 5.5-.1 4.8-8.3s5-8.6 6.1-9.6c0 0 2.6-3.4 6.5-4.2l2.6.2s1.1.5 1.1 1.7l-1.9-.3s-1.1.1-1.7 1.3c0 0-.5 1.1-.3 2.2 0 0 .3.9 1.2 1.3l.6.2 1.9-.3s3.4-1.3 8-7l-1.1 1.9-3.9 6.6-4.5 8s-1.3 2.6-.7 4.2c0 0 .6 1.5 2.6 1.9l4.3-.3s2.4-.7 4.4-2.4l2.8-2.3s3.4-2.9 6.5-6.3l-.2.3s-2.7 4.9-3.2 6.6c0 0-1.1 3.5 1.4 4.9l2.8.3s2.3-.3 4.6-2l3.8-3.2s3.2-3 4.9-5.2c0 0-.9 2-1.1 3.4 0 0-.7 4.6 3.6 6.5l4 .3s1.6-.1 4-1c0 0 5.7-1.8 13.6-9.2 0 0 4-3.7 6.8-7l-10 16.8h4.9l3.7-6.2 4.7-7.7s2.7-4.3 7.6-7c0 0 2-1.2 3.5-1.4 0 0 1.6-.3 1.9.5 0 0-2.2-.5-2.8 1.8 0 0-.5 2.3 1.3 3 0 0 1.4.5 2.5-.3 0 0 1-.7 1.3-2.1 0 0 .3-1.4-.4-2.4 0 0-.8-1.2-2.6-1.3 0 0-2-.1-6.1 2.6 0 0-3 2-4.3 3.2l3.4-5.7h-5s-4.7 8-13.1 14.9c0 0-8.2 6.6-12.8 6.8 0 0-4.5.3-4.9-3.1 0 0-.3-2 .9-4.9 0 0 2.8.3 6.5-.9 0 0 3.5-1.1 6.4-3.1 0 0 3.1-2.1 4.2-4.3 0 0 1.3-2.5-.2-4.6 0 0-2.8-2.7-8.8-.2 0 0-6.2 2.6-10.8 8.7l-1.2 1.8-.1.2-3.3 3.8-3.4 3.4s-4.1 4-6.1 2.8c0 0-.8-.5-.8-1.8 0 0 0-1.3.9-2.8l9.5-16.6h-4.3s-2.4 3.9-5.1 7.6c0 0-5.4 7.2-11.3 11.3 0 0-4 3.1-6.3 2 0 0-1-.5-.9-1.7 0 0 .1-1.4 1.4-3.3l9.3-15.9 5.2-.1.7-.7h-5.3l5.6-9.9-4.7.1s-3.3 5.6-5.8 9c0 0-4.6 6.1-8.4 7.7 0 0 .7-.9.7-2.2l-.1-1.1s-.3-1.4-1.6-2l-1.2-.3-2.2.2s-2.6.6-5.1 2.7l2-3.4h-4.7s-4.3 7.6-9.9 14.2c0 0-7.3 8.4-11.3 7.4 0 0-1.2-.6-1.3-2 0 0 0-1.4 1.3-3.5l9.5-16.1-4.7.1-1.5 2.6-1 1.9s.2-.6 0-1.8c0 0-.4-3-3.2-3.6l-2.2-.2s-5.7-.1-12.1 5.6c0 0-4.4 3.9-7.8 9.9 0 0-6.7 6.3-13.8 7.6 0 0-6.3 1.3-9-1.5 0 0-3-3-3-8.3 0 0 .1-6.3 4.5-14.7 0 0 4.7-7 7.6-10.1 0 0 7.4-8.1 15-10.1 0 0 6.3-1.6 9.7 1.2 0 0 3 2.4 3.2 7.4l1.7-2.9s2.2-3.4 4.1-5.4c0 0-1.8.8-3.9 1.1 0 0-2.7.3-4-.5.2-.1-2.7-1.9-7.5-2zm16.1 23.3c1.9 0 2.9.9 2.9.9 2.3 2.1.5 6.1.5 6.1-3.6 7.4-8.8 11.8-8.8 11.8l-3.2 2.2c-4.9 2.4-7 .7-7 .7-1.7-1.4-1-4.7-1-4.7.5-2.2 2.3-5.5 2.3-5.5l3.6-5.2c3.2-3.6 6.9-5.4 6.9-5.4 1.5-.7 2.8-.9 3.8-.9zm84.7.6h.2s1.1.1 1.5.7c0 0 .5.7.3 2 0 0-.3 3.5-4.2 6.8 0 0-4.4 3.8-9.5 3.6l1-2s2.2-4.3 5.5-7.7c0-.1 3.1-3.4 5.2-3.4z"/><path d="M116.8 17.5s0 .9.7 1.5c0 0 .6.6 1.5.6 0 0 .9 0 1.4-.6 0 0 .6-.7.6-1.5l-.6-1.5s-.7-.6-1.4-.6c0 0-.9 0-1.5.6-.1 0-.7.6-.7 1.5"/>
</svg>